# xmcd
#
# Track frame offsets:
#	150
#	14767
#	27303
#	46305
#	63901
#	79572
#	97267
#	114469
#	133516
#	148097
#	172142
#	202714
#
# Disc length: 3038
#
# Revision: 1
# Processed by: cddbd v1.5.1PL0 Copyright (c) Steve Scherf et al.
# Submitted via: CDex 1.51
# Normalized: r0:TDELIM( - ),TSWAP
#
DISCID=a50bdc0c
DTITLE=Birdland - Jazz erlebt - In Wort Und Musik
DYEAR=1900
DGENRE=Jazz
TTITLE0=Max Kaminsky w/Eddie Condon - Just You Just Me
TTITLE1=Lester Young - Lester Leaps
TTITLE2=Lester Young - She's Funny That Way
TTITLE3=Hot Lips Page - Do It, If You Wanna
TTITLE4=Lennie Tristano - Lee Konitz - Progression
TTITLE5=Lennie Tristano - Lee Konitz - Marionette
TTITLE6=Harry Belafonte - Lean On Me
TTITLE7=Stan Getz - Indian Summer
TTITLE8=Stan Getz - Too Marvelous For Words
TTITLE9=Charlie Parker - Ornithology
TTITLE10=Charlie Parker - Bird Of Paradise
TTITLE11=Charlie Parker - Now's The Time
EXTD=
EXTT0=
EXTT1=
EXTT2=
EXTT3=
EXTT4=
EXTT5=
EXTT6=
EXTT7=
EXTT8=
EXTT9=
EXTT10=
EXTT11=
PLAYORDER=
